<svg xmlns="http://www.w3.org/2000/svg" id="eu" width="64" height="48"><rect x="0" y="0" width="64" height="48" stroke="none" fill="red"/><g id="stars-background" stroke="none" fill="#FFFF00"><polygon id="star-2" points="13.714285714285714 2.2857142857142847 21.23793694362937 25.44113181371361 1.540762305707748 11.130296757714959 25.88780912286368 11.130296757714957 6.190634484942059 25.44113181371361 13.714285714285714 2.2857142857142847" /><polygon id="star-3" points="32.50866211300941 2.2341950298477276 28.56104498740128 9.98182987227829 27.200788828775835 1.3935104904108355 33.3493466524463 7.542068314081302 24.76102727057885 6.181812155455859 32.50866211300941 2.2341950298477276" /><polygon id="star-4" points="37.25793468876466 10.148641127549388 31.439593903117853 16.61056321962985 32.34850797058318 7.962823524194849 36.696194902218174 15.493238185189881 28.75257560692369 11.956511009754403 37.25793468876466 10.148641127549388" /><polygon id="star-5" points="37.71462233450011 19.29675752341051 30.42206819809369 24.03259755339676 33.53821150000355 15.914766713572554 35.7887398601045 24.31385289734397 29.031165178905738 18.841676817386375 37.71462233450011 19.29675752341051" /><polygon id="star-6" points="33.847602541870906 27.447602541870907 25.577810567585434 30.13462083806507 30.68882308758495 23.099915610235918 30.688823087584954 31.795289473505896 25.577810567585434 24.760584245676746 33.847602541870906 27.447602541870907" /></g></svg>