<svg xmlns="http://www.w3.org/2000/svg" id="eu" width="64" height="48"><rect x="0" y="0" width="64" height="48" stroke="none" fill="white"/><g id="us-background" stroke="none" fill="#A2363E"><rect x="0" y="0" width="64" height="3.6923076923076925" /><rect x="0" y="7.384615384615385" width="64" height="3.6923076923076925" /><rect x="0" y="14.76923076923077" width="64" height="3.6923076923076925" /><rect x="0" y="22.153846153846153" width="64" height="3.6923076923076925" /><rect x="0" y="29.53846153846154" width="64" height="3.6923076923076925" /><rect x="0" y="36.92307692307693" width="64" height="3.6923076923076925" /><rect x="0" y="44.30769230769231" width="64" height="3.6923076923076925" /></g><g id="stars-background" stroke="none" fill="#1B305B"><rect x="0" y="0" width="36.57142857142857" height="25.846153846153847" /></g><g id="stars" stroke="none" fill="white"><circle id="star-1" cx="3.0476190476190474" cy="2.5846153846153848" r="0.8615384615384616" /><circle id="star-2" cx="9.142857142857142" cy="2.5846153846153848" r="0.8615384615384616" /><circle id="star-3" cx="15.238095238095237" cy="2.5846153846153848" r="0.8615384615384616" /><circle id="star-4" cx="21.333333333333336" cy="2.5846153846153848" r="0.8615384615384616" /><circle id="star-5" cx="27.42857142857143" cy="2.5846153846153848" r="0.8615384615384616" /><circle id="star-6" cx="33.523809523809526" cy="2.5846153846153848" r="0.8615384615384616" /><circle id="star-7" cx="3.0476190476190474" cy="7.753846153846154" r="0.8615384615384616" /><circle id="star-8" cx="9.142857142857142" cy="7.753846153846154" r="0.8615384615384616" /><circle id="star-9" cx="15.238095238095237" cy="7.753846153846154" r="0.8615384615384616" /><circle id="star-10" cx="21.333333333333336" cy="7.753846153846154" r="0.8615384615384616" /><circle id="star-11" cx="27.42857142857143" cy="7.753846153846154" r="0.8615384615384616" /><circle id="star-12" cx="33.523809523809526" cy="7.753846153846154" r="0.8615384615384616" /><circle id="star-13" cx="3.0476190476190474" cy="12.923076923076925" r="0.8615384615384616" /><circle id="star-14" cx="9.142857142857142" cy="12.923076923076925" r="0.8615384615384616" /><circle id="star-15" cx="15.238095238095237" cy="12.923076923076925" r="0.8615384615384616" /><circle id="star-16" cx="21.333333333333336" cy="12.923076923076925" r="0.8615384615384616" /><circle id="star-17" cx="27.42857142857143" cy="12.923076923076925" r="0.8615384615384616" /><circle id="star-18" cx="33.523809523809526" cy="12.923076923076925" r="0.8615384615384616" /><circle id="star-19" cx="3.0476190476190474" cy="18.092307692307692" r="0.8615384615384616" /><circle id="star-20" cx="9.142857142857142" cy="18.092307692307692" r="0.8615384615384616" /><circle id="star-21" cx="15.238095238095237" cy="18.092307692307692" r="0.8615384615384616" /><circle id="star-22" cx="21.333333333333336" cy="18.092307692307692" r="0.8615384615384616" /><circle id="star-23" cx="27.42857142857143" cy="18.092307692307692" r="0.8615384615384616" /><circle id="star-24" cx="33.523809523809526" cy="18.092307692307692" r="0.8615384615384616" /><circle id="star-25" cx="3.0476190476190474" cy="23.26153846153846" r="0.8615384615384616" /><circle id="star-26" cx="9.142857142857142" cy="23.26153846153846" r="0.8615384615384616" /><circle id="star-27" cx="15.238095238095237" cy="23.26153846153846" r="0.8615384615384616" /><circle id="star-28" cx="21.333333333333336" cy="23.26153846153846" r="0.8615384615384616" /><circle id="star-29" cx="27.42857142857143" cy="23.26153846153846" r="0.8615384615384616" /><circle id="star-30" cx="33.523809523809526" cy="23.26153846153846" r="0.8615384615384616" /><circle id="star-31" cx="6.095238095238095" cy="5.1692307692307695" r="0.8615384615384616" /><circle id="star-32" cx="12.19047619047619" cy="5.1692307692307695" r="0.8615384615384616" /><circle id="star-33" cx="18.285714285714285" cy="5.1692307692307695" r="0.8615384615384616" /><circle id="star-34" cx="24.38095238095238" cy="5.1692307692307695" r="0.8615384615384616" /><circle id="star-35" cx="30.476190476190474" cy="5.1692307692307695" r="0.8615384615384616" /><circle id="star-36" cx="6.095238095238095" cy="10.338461538461539" r="0.8615384615384616" /><circle id="star-37" cx="12.19047619047619" cy="10.338461538461539" r="0.8615384615384616" /><circle id="star-38" cx="18.285714285714285" cy="10.338461538461539" r="0.8615384615384616" /><circle id="star-39" cx="24.38095238095238" cy="10.338461538461539" r="0.8615384615384616" /><circle id="star-40" cx="30.476190476190474" cy="10.338461538461539" r="0.8615384615384616" /><circle id="star-41" cx="6.095238095238095" cy="15.50769230769231" r="0.8615384615384616" /><circle id="star-42" cx="12.19047619047619" cy="15.50769230769231" r="0.8615384615384616" /><circle id="star-43" cx="18.285714285714285" cy="15.50769230769231" r="0.8615384615384616" /><circle id="star-44" cx="24.38095238095238" cy="15.50769230769231" r="0.8615384615384616" /><circle id="star-45" cx="30.476190476190474" cy="15.50769230769231" r="0.8615384615384616" /><circle id="star-46" cx="6.095238095238095" cy="20.676923076923078" r="0.8615384615384616" /><circle id="star-47" cx="12.19047619047619" cy="20.676923076923078" r="0.8615384615384616" /><circle id="star-48" cx="18.285714285714285" cy="20.676923076923078" r="0.8615384615384616" /><circle id="star-49" cx="24.38095238095238" cy="20.676923076923078" r="0.8615384615384616" /><circle id="star-50" cx="30.476190476190474" cy="20.676923076923078" r="0.8615384615384616" /></g></svg>