<?xml version="1.0" encoding="utf-8"?>
<svg xmlns="http://www.w3.org/2000/svg"
  width="90.000000pt" height="90.000000pt" viewBox="0 0 90.000000 90.000000">
  <g transform="translate(0.000000,90.000000) scale(0.100000,-0.100000)"
    fill="#013557" stroke="none">
    <path d="M244 585 c-8 -21 2 -45 19 -45 8 0 20 7 27 15 10 12 10 18 0 30 -7 8
      -19 15 -27 15 -7 0 -16 -7 -19 -15z"/>
    <path d="M335 579 c-4 -6 -5 -12 -3 -14 6 -6 259 -8 265 -2 3 3 2 10 -2 16 -9
      15 -251 15 -260 0z"/>
    <path d="M244 465 c-8 -21 2 -45 19 -45 8 0 20 7 27 15 10 12 10 18 0 30 -7 8
      -19 15 -27 15 -7 0 -16 -7 -19 -15z"/>
    <path d="M337 464 c-19 -20 4 -24 129 -24 104 0 135 3 132 13 -5 13 -248 24
      -261 11z"/>
    <path d="M244 345 c-8 -21 2 -45 19 -45 8 0 20 7 27 15 10 12 10 18 0 30 -7 8
      -19 15 -27 15 -7 0 -16 -7 -19 -15z"/>
    <path d="M337 344 c-19 -20 4 -24 129 -24 104 0 135 3 132 13 -5 13 -248 24
      -261 11z"/>
  </g>
</svg>
