<?xml version="1.0" encoding="utf-8"?>
<svg xmlns="http://www.w3.org/2000/svg"
  width="90.000000pt" height="90.000000pt" viewBox="0 0 90.000000 90.000000">
  <g transform="translate(0.000000,90.000000) scale(0.100000,-0.100000)"
    fill="#013557" stroke="none">
    <path d="M320 660 c-11 -11 -20 -29 -20 -40 0 -11 9 -29 20 -40 12 -12 20 -33
      20 -53 0 -27 11 -43 60 -92 66 -65 76 -99 40 -135 -25 -25 -25 -55 0 -80 25
      -25 55 -25 80 0 25 25 25 55 0 80 -36 36 -26 70 40 135 49 49 60 65 60 92 0
      20 8 41 20 53 11 11 20 29 20 40 0 26 -34 60 -60 60 -26 0 -60 -34 -60 -60 0
      -11 9 -29 20 -40 36 -36 27 -79 -30 -135 l-50 -49 -50 49 c-57 56 -66 99 -30
      135 11 11 20 29 20 40 0 26 -34 60 -60 60 -11 0 -29 -9 -40 -20z m60 -26 c11
      -12 10 -18 -3 -32 -16 -15 -18 -15 -34 0 -13 14 -14 20 -3 32 7 9 16 16 20 16
      4 0 13 -7 20 -16z m240 0 c11 -12 10 -18 -3 -32 -16 -15 -18 -15 -34 0 -13 14
      -14 20 -3 32 7 9 16 16 20 16 4 0 13 -7 20 -16z m-120 -360 c11 -12 10 -18 -3
      -32 -16 -15 -18 -15 -34 0 -13 14 -14 20 -3 32 7 9 16 16 20 16 4 0 13 -7 20
      -16z"/>
  </g>
</svg>
