<?xml version="1.0" encoding="utf-8"?>
<svg xmlns="http://www.w3.org/2000/svg"
  width="90.000000pt" height="90.000000pt" viewBox="0 0 90.000000 90.000000">
  <g transform="translate(0.000000,90.000000) scale(0.100000,-0.100000)"
    fill="#013557" stroke="none">
    <path d="M319 659 c-16 -9 -71 -219 -76 -290 -8 -99 -8 -99 195 -99 92 0 173
      4 181 9 25 16 16 146 -18 262 -17 57 -35 107 -40 112 -10 10 -227 16 -242 6z
      m252 -125 c16 -54 29 -102 29 -106 0 -5 -72 -8 -160 -8 -106 0 -160 4 -160 11
      0 10 50 189 55 199 2 3 49 5 105 4 l103 -1 28 -99z m34 -184 l0 -45 -165 0
      -165 0 -3 33 c-2 19 -1 39 1 45 3 9 54 12 168 12 l164 0 0 -45z"/>
    <path d="M464 366 c-8 -21 3 -49 16 -41 5 3 10 15 10 25 0 25 -18 36 -26 16z"/>
    <path d="M514 366 c-8 -21 3 -49 16 -41 5 3 10 15 10 25 0 25 -18 36 -26 16z"/>
    <path d="M564 366 c-8 -21 3 -49 16 -41 5 3 10 15 10 25 0 25 -18 36 -26 16z"/>
  </g>
</svg>
