<?xml version="1.0" encoding="utf-8"?>
<svg xmlns="http://www.w3.org/2000/svg"
  width="90.000000pt" height="90.000000pt" viewBox="0 0 90.000000 90.000000">
  <g transform="translate(0.000000,90.000000) scale(0.100000,-0.100000)"
    fill="#013557" stroke="none">
    <path d="M271 558 c-4 -13 -18 -49 -30 -81 -15 -41 -21 -81 -21 -138 0 -124
      -7 -119 178 -119 110 0 162 4 170 12 8 8 12 45 12 100 0 71 -5 100 -27 155
      -14 38 -30 74 -36 81 -7 8 -44 12 -123 12 -110 0 -115 -1 -123 -22z m239 -55
      c8 -21 16 -41 18 -45 2 -5 -17 -8 -42 -8 -35 0 -48 -5 -56 -20 -14 -26 -50
      -26 -57 0 -4 17 -14 20 -55 20 -44 0 -49 2 -43 18 4 9 12 29 17 45 10 27 10
      27 107 27 l97 0 14 -37z m-158 -108 c16 -14 38 -25 48 -25 10 0 32 11 48 25
      18 15 42 25 61 25 l31 0 0 -80 0 -80 -140 0 -140 0 0 80 0 80 31 0 c19 0 43
      -10 61 -25z"/>
  </g>
</svg>
