<?xml version="1.0" encoding="utf-8"?>
<svg xmlns="http://www.w3.org/2000/svg"
  width="90.000000pt" height="90.000000pt" viewBox="0 0 90.000000 90.000000">
  <g transform="translate(0.000000,90.000000) scale(0.100000,-0.100000)"
    fill="#013557" stroke="none">
    <path d="M380 661 c-136 -44 -207 -173 -168 -305 16 -55 99 -138 154 -154 94
      -28 169 -8 239 63 97 96 99 231 7 328 -55 58 -165 90 -232 68z m136 -42 c48
      -15 105 -80 119 -137 39 -147 -85 -279 -235 -252 -173 32 -222 268 -76 368 56
      38 114 45 192 21z"/>
    <path d="M380 432 c0 -65 3 -121 6 -125 6 -6 152 112 152 123 1 9 -137 120
      -147 120 -7 0 -11 -42 -11 -118z m81 19 c20 -16 22 -21 9 -35 -7 -10 -22 -22
      -32 -27 -16 -9 -18 -5 -18 36 0 50 7 54 41 26z"/>
  </g>
</svg>
