<?xml version="1.0" encoding="utf-8"?>
<svg xmlns="http://www.w3.org/2000/svg"
  width="90.000000pt" height="90.000000pt" viewBox="0 0 90.000000 90.000000">
  <g transform="translate(0.000000,90.000000) scale(0.100000,-0.100000)"
    fill="#013557" stroke="none">
    <path d="M515 635 c-14 -13 -25 -32 -25 -42 0 -12 -21 -29 -59 -50 -52 -28
      -61 -30 -78 -18 -32 25 -81 18 -114 -14 -37 -37 -38 -79 -3 -120 30 -36 78
      -42 119 -15 24 16 27 15 80 -21 30 -21 55 -45 55 -52 0 -22 47 -63 73 -63 30
      0 67 39 67 71 0 30 -38 69 -66 69 -11 0 -29 -7 -41 -15 -20 -14 -25 -12 -77
      22 -46 32 -55 43 -56 68 0 28 6 34 56 58 50 25 59 26 90 15 30 -11 37 -10 61
      8 37 27 42 69 12 100 -29 31 -63 31 -94 -1z m69 -21 c20 -19 20 -29 0 -48 -12
      -12 -20 -13 -35 -6 -21 12 -25 40 -7 58 16 16 23 15 42 -4z m-246 -120 c56
      -39 -7 -134 -64 -96 -18 12 -35 52 -28 65 28 48 54 58 92 31z m246 -160 c9 -8
      16 -19 16 -24 0 -10 -29 -40 -39 -40 -13 0 -31 24 -31 40 0 16 18 40 31 40 4
      0 15 -7 23 -16z"/>
  </g>
</svg>
