<?xml version="1.0" encoding="utf-8"?>
<svg xmlns="http://www.w3.org/2000/svg"
  width="90.000000pt" height="90.000000pt" viewBox="0 0 90.000000 90.000000">
  <g transform="translate(0.000000,90.000000) scale(0.100000,-0.100000)"
    fill="#013557" stroke="none">
    <path d="M472 590 c-30 -18 -52 -66 -44 -94 2 -5 -18 -30 -43 -56 -33 -33 -55
      -47 -75 -48 -16 0 -38 -6 -49 -12 -39 -20 -64 -95 -43 -127 6 -9 19 -1 47 27
      30 30 42 37 52 29 21 -18 15 -35 -23 -69 -29 -25 -34 -34 -23 -41 21 -13 57
      -11 89 6 34 18 51 45 52 85 1 20 15 42 49 76 26 25 52 43 58 40 5 -4 26 0 45
      8 52 22 82 95 57 135 -7 11 -16 6 -41 -23 -34 -38 -51 -44 -69 -23 -8 10 -1
      22 29 52 28 28 36 41 27 47 -21 14 -61 9 -95 -12z m36 -31 c-34 -25 -36 -62
      -6 -83 32 -23 54 -20 77 10 22 28 29 17 10 -17 -26 -49 -107 -43 -129 10 -19
      46 14 100 60 100 9 0 5 -7 -12 -20z m-47 -125 c11 -13 7 -21 -24 -52 -35 -34
      -38 -36 -54 -19 -16 16 -15 19 17 52 38 40 43 41 61 19z m-117 -75 c51 -23 55
      -103 7 -128 -36 -20 -46 -11 -16 13 26 21 29 27 20 52 -6 18 -21 33 -39 39
      -25 8 -31 6 -52 -18 -25 -29 -32 -21 -13 14 9 18 39 36 61 38 4 1 18 -4 32
      -10z"/>
  </g>
</svg>
