<?xml version="1.0" encoding="utf-8"?>
<svg xmlns="http://www.w3.org/2000/svg"
  width="90.000000pt" height="90.000000pt" viewBox="0 0 90.000000 90.000000">
  <g transform="translate(0.000000,90.000000) scale(0.100000,-0.100000)"
    fill="#013557" stroke="none">
    <path d="M417 650 c-10 -17 -13 -30 -8 -30 7 0 11 -38 11 -105 l0 -105 -65 0
      -65 0 0 35 c0 19 4 35 10 35 16 0 23 49 10 65 -15 18 -51 20 -68 3 -17 -17
      -15 -57 3 -64 10 -4 15 -20 15 -44 0 -21 6 -42 13 -48 7 -6 45 -12 85 -14 l72
      -3 -19 -36 c-18 -33 -18 -39 -5 -58 19 -27 49 -27 68 1 13 19 14 25 2 43 -7
      11 -15 39 -17 63 l-5 42 71 0 c82 0 95 9 95 62 0 27 4 38 15 38 11 0 15 12 15
      45 l0 45 -45 0 -45 0 0 -45 c0 -34 4 -45 16 -45 11 0 14 -8 12 -31 -3 -32 -3
      -32 -65 -33 l-63 -2 0 78 c0 48 4 78 11 78 5 0 2 13 -8 30 -9 17 -20 30 -23
      30 -3 0 -14 -13 -23 -30z"/>
  </g>
</svg>
